<svg xmlns="http://www.w3.org/2000/svg" viewBox="228.724 225.74 543.861 592.113" width="100" >
  <path fill="#001912" d="M390 240.41c8.01-9.14 20.24-13.4 32.04-14.66 14.68-.26 28.76 4.57 43.03 7.39 14.32 3.6 29.04 5.76 43.02 10.66 13.98 4.86 25.15 15.45 33.81 27.16.9 1 1.65 2.51 3.12 2.74 7.43.7 14.63 2.77 21.95 4.11 15.29 2.97 30.54 6.37 46.02 8.23 2.01.25 3.34 2 4.82 3.21 26.22 26.08 51.97 52.63 78.12 78.76 3.2 3.13 6.32 6.38 8.99 9.97 3.39 4.51 4.73 10.2 5.16 15.73.33 29.43.02 58.85.2 88.28.17 4.48-.46 9.05.29 13.49 1.76 2.46 4.08 4.45 6.2 6.6 3.45 3.36 6.81 6.82 9.82 10.59 5.42 7.12 10.52 14.54 14.7 22.47 6.55 12.69 10.71 26.52 12.31 40.71 1.75 19.07.76 38.74-5.82 56.88-5.39 15.3-13.48 29.7-23.99 42.08-4.27 4.84-9.01 9.22-13.72 13.63-.02 13.51 0 27.03-.02 40.54.48 13.51-2.84 27.28-10.25 38.66-8.18 12.92-21.7 22.3-36.71 25.28-8.21 2.11-16.72 1.26-25.09 1.38-57.11.04-114.22-.09-171.32.04-61.35-.23-122.7-.28-184.05-.12-10.86-1.23-21.14-5.66-29.81-12.25-14.32-12.38-24.08-30.75-23.97-49.92-.11-139.34-.16-278.67-.1-418 .32-15.7 6.96-31.17 18.21-42.12 8.62-8.23 19.92-13.29 31.6-15.25 7.38-1.04 14.85-.39 22.27-.68.69-8.33 5.77-15.98 12.86-20.29 4.28-2.83 9.32-4.07 14.22-5.35 9.19-.01 18.14 2.37 27.12 3.99 11.64 2.14 23.23 4.56 34.97 6.06m-71.74 20.47c-.72 7.33 5.19 14.39 12.38 15.42l-.09.74c12.98 2 25.88 4.58 38.91 6.29.01.34.04 1.02.06 1.36l.15-1.3c3.85.88 8.02.71 11.58 2.63 3.79.13 7.57.37 11.29 1.12 4.66.5 10.4 1.29 13.84-2.7 6.06-4.43 7.74-13.92 3.01-19.9-2.35-3.5-6.42-5.28-10.47-5.86-7.66-1.32-15.27-2.89-22.96-3.98-14-2.31-27.94-5.14-42.01-7.03-7.85-1.48-15.22 5.58-15.69 13.21m101.75-10.91c4.13 4.21 7.63 9.14 9.23 14.88l.11-.07c.28 1.62.57 3.24.85 4.87.86 5.86-.52 11.71-2.64 17.15l-.04-.16c-4.49 8.17-12.55 14.5-21.9 15.89.77 3.34 3.25 6.05 6.43 7.29 4.99 1.98 10.32 2.93 15.51 4.25 4.43 1.06 8.87 2.09 13.32 3.05 8.3 2.08 16.66 3.88 25.01 5.71 5.97 1.06 11.91 3.17 18.05 2.73 1.51-.48 4.33-.25 4.07-2.51-3.38-4.1-6.16-8.83-7.1-14.13-2.22-10.17 1.83-21.31 9.88-27.85l.2.03c.87-.67 1.75-1.33 2.64-1.98 4.1-2.42 8.55-4.11 13.12-5.42.7.01 2.11.02 2.81.03-4.27-6.52-12.15-9.26-19.38-11.04-16.31-3.92-32.79-7.13-49.18-10.71-6.9-1.31-13.93-3.57-20.99-2.01m-141.1 37.84c-6.4 2.4-11.61 7.2-15.47 12.76-.99 1.88-1.96 3.79-2.87 5.72-2.44 5.94-3.38 12.38-3.21 18.78-.07 132.34-.13 264.67.01 397.01 0 7.48.15 15.42 3.94 22.09l.66.02-.2.7c2.37 5.35 6.41 9.86 10.96 13.49 5.65 5.18 13.79 6.81 21.25 6.5 21.86.11 43.72-.12 65.58.09 17.61.08 35.23.24 52.83-.11 1 .11 2.01.22 3.02.32 1.34-.04 2.69-.13 4.03-.27 76.55-.02 153.1.1 229.65-.01 5.84-.22 11.46-2.47 16.41-5.48 9.01-5.75 14.31-16 15.87-26.38.12-2.04.22-4.09.35-6.12.07-6.7.02-13.38.03-20.07-10.02 3.31-20.07 7.16-30.68 7.98-29.73 4.15-60.8-5-84.19-23.65-.96-.87-1.87-1.85-3.04-2.4 1.27-2.45 4.22-3.03 6.27-4.61 1.44-.77 2.86-1.59 4.28-2.4 1.65-1 3.3-1.98 4.98-2.92.77-.61 1.53-1.22 2.31-1.82 13.49 9.79 29.64 15.78 46.07 18.37-12.65-14.37-21.97-31.65-27.38-50-.56-1.8-1.15-3.59-1.75-5.36-9.22 2.51-18.14 5.96-27.02 9.47-3.6 1.54-7.41 2.76-10.68 4.95 2.29 1.58 4.4 3.4 6.54 5.2l2.2.84c-1.16.74-2.33 1.46-3.51 2.16l.02.12c-1.63.81-3.23 1.66-4.81 2.55-1.75 1.09-3.48 2.24-5.39 3.04-2.36-.83-4.55-2.06-6.79-3.12-.38.2-1.13.6-1.5.81-1.65-1.01-3.24-3.26-5.36-2.76-1.51 1.7-2.62 3.73-4.14 5.43-1.92-.73-2.2-2.83-2.75-4.52-2.28-.78-4.68-.81-7.04-.5-.34-1.48-.66-2.96-.99-4.42 3.88-2.25 8.55-3.84 10.96-7.89 2.87-4.45 3.7-10.79.46-15.27-2.56-3.94-7.31-5.81-11.82-6.22-4.58.76-8.64 3.17-12.59 5.47-4.4 2.6-8.97 4.89-13.37 7.48-.57-.35-1.73-1.04-2.31-1.38-2.62 1.22-4.5 4.14-7.75 3.64-3.02.63-5.29-2.09-8.24-1.78 1.12 1.97 2.31 3.91 3.54 5.82-1.24.5-2.34 1.29-3.56 1.83-.32-1.93-.93-3.8-1.62-5.61-.59 1.49-1.17 2.99-1.71 4.51-3.78-.1-4.98-3.69-6.2-6.61-.61-.22-1.83-.66-2.45-.88 16.75-9.29 33.4-18.77 50.33-27.72-2.8-14.66-2.78-29.86-.48-44.59 5.03-35.32 27.9-67.22 58.94-84.5 22.79-13.31 50.36-18.41 76.36-13.82 8.98 1.28 17.74 3.78 26.09 7.32.1-4.97.04-9.93.11-14.9.01-.9.04-2.71.05-3.61-.05-3.46-.04-6.92-.04-10.37-.01-1.49-.01-2.97.01-4.44-.02-2.78-.1-5.55-.21-8.31-29.05-.06-58.09.02-87.14.05-11.62-12.8-23.51-25.36-35.35-37.96-1.74-2.39-4.98-4.26-4.87-7.54-.05-8.11-.13-16.23-.11-24.35-.01-2.47-.02-4.95.01-7.42-.04-4.04-.06-8.09-.02-12.13-.03-.71-.09-2.14-.13-2.86-3.14-.3-6.25-.79-9.33-1.44-10.6-2.12-21.36-3.48-31.87-6.06-11.09 8.39-25.33 11.78-39.06 10.8l.35-.16c-9.83-2.01-19.58-4.35-29.38-6.45-14.83-3.51-30.16-5.29-44.33-11.16-2.68-2.18-5.51-4.2-8.46-6-4.37-3.27-8.24-7.12-11.8-11.24l.28-.1c-1.72-1.92-3.37-3.91-4.77-6.08-1.36-2.59-2.23-6.64-5.93-6.44-11.86-1.52-23.61-4.08-35.5-5.17l1.12-.27c-7.14-1.78-14.86-2.03-21.22-6.12-3.7-4.1-9.29-4.92-14.49-3.95-7.07-.75-14.32-.15-20.99 2.4m220.39 19.13c.68 7.63 7.05 14.21 14.64 15.24 18.03 3.46 36.12 6.66 54.15 10.16 7.1.93 15.52 3.7 21.6-1.59 5.09-3.57 5.89-10.23 4.79-15.91l-.36-.33c-1.13-2.86-2.69-5.7-5.31-7.44-3.16-2.06-7.03-2.42-10.69-2.76l-.18-.24c-2.03-.19-4.06-.34-6.08-.23l1.04-.69c-6.3-.43-12.42-2.23-18.72-2.57-6.97-1.7-14.18-2.43-21.2-4-7.96-1.22-15.81-3.8-23.94-3.33-6.24 1.07-10.49 7.54-9.74 13.69m112.2 23.83c-4.81 11.13-16.18 19.06-28.4 19 .09 12.44.06 24.88-.03 37.32 1.28 1.4 2.55 2.81 3.84 4.22 5.12 5.47 9.65 11.55 15.51 16.28v.11c26.61-.25 53.23.13 79.85-.21-1.8-4.01-3.35-8.25-6.38-11.52-20.45-21.21-41.55-41.78-62.17-62.82l.03-.24c-.74-.74-1.49-1.45-2.25-2.14m37.88 160.64c3.46 5.44 7.41 10.54 10.83 16.01l.16.03c7.23 12.59 13.39 25.88 17.16 39.94.51 1.02.53 3.78 2.42 2.58 12.85-3.84 25.58-8.13 37.98-13.23-4.63-7.65-10.46-14.47-17.06-20.47l.04-.09c-6.96-6.71-15.04-12.3-23.89-16.2-8.79-4.02-18-7.38-27.64-8.57m-34.4 2.01c-14.07 3.75-27.43 10.27-38.7 19.53l-.1.55c-3.23 2.68-6.56 5.43-8.94 8.92-4.43 3.76-7.25 8.94-11.06 13.26 1.53.97 3.17 1.76 4.9 2.34 12.51 4.39 25.21 8.19 37.82 12.27 1.87-5.66 3.46-11.41 5.42-17.03 1.54-4.53 3.93-8.69 5.62-13.15 1.96-2.62 3.19-5.68 4.58-8.62l.27-.2c4.08-6.88 9.27-13.01 13.66-19.68-4.56-.05-9.07.7-13.47 1.81m19.7 19.18c-8.19 12.91-14.4 27.11-18 41.98 14.58-.75 29.2-.61 43.78 0-4.01-16.9-10.96-33.16-21.45-47.08-1.59 1.56-3.14 3.2-4.33 5.1m-86.54 38.18c-3.86 9.44-7.11 19.3-7.33 29.6 7.21-5.12 15.4-8.53 23.16-12.63 4.08-1.5 8.67-2.45 12.2-4.92 1.27.89 2.19.6 2.77-.87-.58-1.47-1.5-1.73-2.76-.77-1.17-1.26-3.08-1.33-4.58-1.98-7.85-2.71-15.58-5.78-23.46-8.43m148.47 10.9c1.21.71 2.43 1.43 3.77 1.93 8.4 2.86 16.76 6 24.61 10.17 2.38 1.46 4.68 3.07 7.14 4.43 1.07-3.19-.94-7.08-1.28-10.48-1.38-5.52-3.46-10.82-5.74-16.03-9.26 4.01-18.86 7.07-28.5 9.98m-82.71 10.16.1.3c-1.87 14.59-2.37 29.51-.38 44.12.35 3.25 4.06 2.63 6.38 3 8.27 1.4 16.67.87 25.02.87 2.77-.16 5.7.13 8.35-.92 2.8-.05 5.62.04 8.42-.29 2.27-1.73 1.12-5.18 1.65-7.64 1.75-12.8 1.15-25.94-1.02-38.67-1.69-.15-3.35-.53-5.03-.43-2.99-.33-5.98-.46-8.96-.82-11.49-1.26-23.03-.02-34.53.48m-46.16 12.97c-5.46 2.46-10.09 6.28-14.94 9.71 1.41 3 4.61 4.44 7.36 5.98 8.98 5.6 19.12 9.08 29.25 11.93l-.64.01c2.11.68 4.23 1.31 6.39 1.86-1.49-13.08-.55-26.23.2-39.32-9.58 2.08-18.73 5.75-27.62 9.83m114.23-9.47c.97 9.51 1.11 19.08.93 28.64-.35 3.69-.82 7.37-.59 11.09 9.81-4.03 20.25-6.77 29.3-12.48 3.6-2.32 7.69-4.28 10.18-7.92-11.06-10.22-25.83-14.71-39.82-19.33m14.63 52.14c8.97 3.25 18.22 5.66 27.25 8.77 4.16-8.33 7.06-17.34 8.3-26.57-10.69 8.07-23.41 12.49-35.55 17.8m-154.63-16.76c.1 6.44 6.56 8.88 9.82 13.48 2.92 3.55 4.25 8.03 5.38 12.41 8.07-3.03 16.38-5.44 24.29-8.89-13.69-4.3-27.4-9.12-39.49-17m74.75 25.65c2.71 10.76 6.47 21.31 12.06 30.93 3.1 5.1 6.03 10.44 10.44 14.55 10.38-13.12 17.07-28.76 21.35-44.84-14.61-.57-29.25.35-43.85-.64m61.66 2.53c-1.85 11.49-6.73 22.21-11.97 32.51-4.75 8.21-9.22 16.72-15.68 23.76 9.73-1.42 18.99-5.17 27.65-9.72 15.04-8.25 28.41-19.76 37.95-34.08-12.49-4.65-25.42-7.96-37.95-12.47Z"/>
  <path fill="#19b0fc" d="M318.26 260.88c.47-7.63 7.84-14.69 15.69-13.21 14.07 1.89 28.01 4.72 42.01 7.03-1.28.02-2.56.06-3.83.12.17.56.51 1.69.68 2.25 1.2.49 2.41.98 3.61 1.47-.24.35-.72 1.03-.96 1.37 2.82.12 5.63.26 8.45.4-1.28.4-2.57.8-3.85 1.2 4 .55 7.95 1.5 11.72 2.96-.77.65-1.54 1.29-2.3 1.94 1.17 1.79 2.21 3.72 3.8 5.18 2.18.62 4.48.64 6.73.8-2.29.35-4.64.63-6.74 1.65.56 2.74 4.75 1.69 6.91 2.56.46 3.06.83 6.13 1.06 9.22-10.72 1.41-21.29-2.1-31.78-3.8-13.01-1.44-25.8-4.35-38.82-5.72-7.19-1.03-13.1-8.09-12.38-15.42Z"/>
  <path fill="#87a1aa" d="M420.01 249.97c7.06-1.56 14.09.7 20.99 2.01 16.39 3.58 32.87 6.79 49.18 10.71 7.23 1.78 15.11 4.52 19.38 11.04-.7-.01-2.11-.02-2.81-.03-3.9-1.32-7.99-2.04-11.76-3.75-5.26-2.28-11.25-1.42-16.58-3.52-6.69-2.56-13.95-1.37-20.84-2.79-7.77-1.44-15.71-1.94-23.58-1.21-1.75.27-3.15 1.48-4.64 2.35l-.11.07c-1.6-5.74-5.1-10.67-9.23-14.88Z"/>
  <path fill="#22b7fa" d="M372.13 254.82c1.27-.06 2.55-.1 3.83-.12 7.69 1.09 15.3 2.66 22.96 3.98 4.05.58 8.12 2.36 10.47 5.86 4.73 5.98 3.05 15.47-3.01 19.9-1.7.53-3.41 1-5.14 1.38-.23-3.09-.6-6.16-1.06-9.22-2.16-.87-6.35.18-6.91-2.56 2.1-1.02 4.45-1.3 6.74-1.65-2.25-.16-4.55-.18-6.73-.8-1.59-1.46-2.63-3.39-3.8-5.18.76-.65 1.53-1.29 2.3-1.94-3.77-1.46-7.72-2.41-11.72-2.96 1.28-.4 2.57-.8 3.85-1.2-2.82-.14-5.63-.28-8.45-.4.24-.34.72-1.02.96-1.37-1.2-.49-2.41-.98-3.61-1.47-.17-.56-.51-1.69-.68-2.25Z"/>
  <path fill="#a1bac2" d="M429.35 264.78c1.49-.87 2.89-2.08 4.64-2.35 7.87-.73 15.81-.23 23.58 1.21 6.89 1.42 14.15.23 20.84 2.79 5.33 2.1 11.32 1.24 16.58 3.52 3.77 1.71 7.86 2.43 11.76 3.75-4.57 1.31-9.02 3-13.12 5.42-.57-.69-1.13-1.37-1.69-2.05-8.99-1.93-17.7-5.15-26.86-6.34-7.36-.88-14.6-2.75-22.03-2.93-4.34-.11-8.98-.51-12.85 1.85-.28-1.63-.57-3.25-.85-4.87Z"/>
  <path fill="#bcd0d8" d="M430.2 269.65c3.87-2.36 8.51-1.96 12.85-1.85 7.43.18 14.67 2.05 22.03 2.93 9.16 1.19 17.87 4.41 26.86 6.34.56.68 1.12 1.36 1.69 2.05-.89.65-1.77 1.31-2.64 1.98l-.2-.03c-19.26-3.75-38.6-7.24-58.16-9.03 5.57 14.36 6.34 29.95 8.25 45.08-4.45-.96-8.89-1.99-13.32-3.05.62-.65 1.27-1.28 1.9-1.92-1.69-8.32.76-17.11-1.9-25.35 2.12-5.44 3.5-11.29 2.64-17.15Z"/>
  <path fill="#fbfdff" d="M432.63 272.04c19.56 1.79 38.9 5.28 58.16 9.03-8.05 6.54-12.1 17.68-9.88 27.85.94 5.3 3.72 10.03 7.1 14.13.26 2.26-2.56 2.03-4.07 2.51-6.14.44-12.08-1.67-18.05-2.73-8.35-1.83-16.71-3.63-25.01-5.71-1.91-15.13-2.68-30.72-8.25-45.08Z"/>
  <path fill="#3b8ab5" d="M330.64 276.3c13.02 1.37 25.81 4.28 38.82 5.72 10.49 1.7 21.06 5.21 31.78 3.8 1.73-.38 3.44-.85 5.14-1.38-3.44 3.99-9.18 3.2-13.84 2.7-3.72-.75-7.5-.99-11.29-1.12-3.56-1.92-7.73-1.75-11.58-2.63l-.15 1.3c-.02-.34-.05-1.02-.06-1.36-13.03-1.71-25.93-4.29-38.91-6.29l.09-.74Z"/>
  <path fill="#7f98a4" d="M278.91 287.81c6.67-2.55 13.92-3.15 20.99-2.4 2.81 1.15 5.35 2.88 7.65 4.86.84.74 1.67 1.51 2.49 2.28-5.37.32-10.71 1.05-16.09 1.16-10.53.19-20.53 3.89-30.51 6.86 3.86-5.56 9.07-10.36 15.47-12.76Z"/>
  <path fill="#30494f" d="M299.9 285.41c5.2-.97 10.79-.15 14.49 3.95-2.29.29-4.56.6-6.84.91-2.3-1.98-4.84-3.71-7.65-4.86Z"/>
  <path fill="#acc1c8" d="m427.52 286.64.04.16c2.66 8.24.21 17.03 1.9 25.35-.63.64-1.28 1.27-1.9 1.92-5.19-1.32-10.52-2.27-15.51-4.25-3.18-1.24-5.66-3.95-6.43-7.29 9.35-1.39 17.41-7.72 21.9-15.89Z"/>
  <path fill="#4a6a70" d="M307.55 290.27c2.28-.31 4.55-.62 6.84-.91 6.36 4.09 14.08 4.34 21.22 6.12l-1.12.27c-6.17 1.32-12.79-.38-18.63 2.49l-1.23-1.23c-1.52-1.51-3.05-2.99-4.59-4.46-.82-.77-1.65-1.54-2.49-2.28Z"/>
  <path fill="#91acb6" d="M293.95 293.71c5.38-.11 10.72-.84 16.09-1.16 1.54 1.47 3.07 2.95 4.59 4.46-9.33 1.48-18.99-1.12-28.15 1.72-4.65 1.41-9.65 1.6-14.06 3.75-3.73 1.88-7.85 2.72-11.85 3.81.91-1.93 1.88-3.84 2.87-5.72 9.98-2.97 19.98-6.67 30.51-6.86Z"/>
  <path fill="#1ab1fd" d="M499.3 306.94c-.75-6.15 3.5-12.62 9.74-13.69 8.13-.47 15.98 2.11 23.94 3.33 7.02 1.57 14.23 2.3 21.2 4 5.41 2.76 11.68 3.34 17.68 3.26 2.02-.11 4.05.04 6.08.23l.18.24c.32.4.95 1.21 1.26 1.61 2.5.77 5.18.97 7.56 2.1 2.62 1.9 4.7 4.41 7.18 6.49l.36.33c1.1 5.68.3 12.34-4.79 15.91-6.08 5.29-14.5 2.52-21.6 1.59-18.03-3.5-36.12-6.7-54.15-10.16-7.59-1.03-13.96-7.61-14.64-15.24Z"/>
  <path fill="#6b8894" d="M315.86 298.24c5.84-2.87 12.46-1.17 18.63-2.49 11.89 1.09 23.64 3.65 35.5 5.17 3.7-.2 4.57 3.85 5.93 6.44-2.28.06-4.57 0-6.82-.41-6.65-1.22-13.44-.22-20.13-1.06-8.86-.48-17.77-2.57-26.62-.87-.67-.75-1.34-1.48-2.02-2.19-1.48-1.55-2.97-3.07-4.47-4.59Z"/>
  <path fill="#acbfc9" d="M286.48 298.73c9.16-2.84 18.82-.24 28.15-1.72l1.23 1.23c1.5 1.52 2.99 3.04 4.47 4.59-8.01-.39-16.18-1.79-24.05.43-5.09 1.4-10.75-.08-15.51 2.54-5.19 2.66-9.86 6.21-14.92 9.09-2.81 1.5-5.18 4.16-5.15 7.52-.3 6.53-.52 13.07-.51 19.61.27 16.33-.29 32.69 1 48.99.57 8.18-1.37 16.22-1.51 24.35 1.01 10.49.41 21.05 1.62 31.52.34 14.69 1.22 29.42-.1 44.08-.44 6.24.2 12.5-.43 18.74-1.2 13.07-.24 26.21-.65 39.32-.27 7.03.95 14 .9 21.03-.06 7.99-.24 15.98.04 23.98.13 4.45 1.36 8.96.21 13.38-1.05 4.45-.2 9.03-.29 13.55.05 5.37-1.05 10.69-.7 16.07.84 10.03-.82 20.07-.45 30.1 2.11 12.54.51 25.27 1.12 37.9.41 7.29-.37 14.61.38 21.9.31 2.84.07 5.7-.25 8.54-.51 2.89 1.63 5.26 2.86 7.66-.49.27-1.47.8-1.97 1.06l-.66-.02c-3.79-6.67-3.94-14.61-3.94-22.09-.14-132.34-.08-264.67-.01-397.01-.17-6.4.77-12.84 3.21-18.78 4-1.09 8.12-1.93 11.85-3.81 4.41-2.15 9.41-2.34 14.06-3.75Z"/>
  <path fill="#3ea9d5" d="M554.18 300.58c6.3.34 12.42 2.14 18.72 2.57l-1.04.69c-6 .08-12.27-.5-17.68-3.26Z"/>
  <path fill="#b7cbd7" d="M296.28 303.26c7.87-2.22 16.04-.82 24.05-.43.68.71 1.35 1.44 2.02 2.19l1.03 1.17c-5.43.18-10.85.87-16.29.52-2.62-.16-5.27-.19-7.87.27-5.61.98-11.7 1.16-16.47 4.69-3.8 2.82-7.86 5.93-9.72 10.44-1.26 4.15-.8 8.59.07 12.77.53 18.71-.06 37.44.09 56.16-.14 60.31.1 120.61.07 180.92.07 53.66-.16 107.32-.04 160.99-.13 8.47.48 16.98-.49 25.43-4.55-3.63-8.59-8.14-10.96-13.49l.2-.7c.5-.26 1.48-.79 1.97-1.06-1.23-2.4-3.37-4.77-2.86-7.66.32-2.84.56-5.7.25-8.54-.75-7.29.03-14.61-.38-21.9-.61-12.63.99-25.36-1.12-37.9-.37-10.03 1.29-20.07.45-30.1-.35-5.38.75-10.7.7-16.07.09-4.52-.76-9.1.29-13.55 1.15-4.42-.08-8.93-.21-13.38-.28-8-.1-15.99-.04-23.98.05-7.03-1.17-14-.9-21.03.41-13.11-.55-26.25.65-39.32.63-6.24-.01-12.5.43-18.74 1.32-14.66.44-29.39.1-44.08-1.21-10.47-.61-21.03-1.62-31.52.14-8.13 2.08-16.17 1.51-24.35-1.29-16.3-.73-32.66-1-48.99-.01-6.54.21-13.08.51-19.61-.03-3.36 2.34-6.02 5.15-7.52 5.06-2.88 9.73-6.43 14.92-9.09 4.76-2.62 10.42-1.14 15.51-2.54Z"/>
  <path fill="#90a7b2" d="M322.35 305.02c8.85-1.7 17.76.39 26.62.87 6.69.84 13.48-.16 20.13 1.06 2.25.41 4.54.47 6.82.41 1.4 2.17 3.05 4.16 4.77 6.08l-.28.1c-2.04.79-4.17 1.55-6.39 1.27-6.96-.5-13.94-.53-20.88-1.2-7.76-.44-15.54-1.78-23.31-.77-.79-.71-1.57-1.43-2.32-2.17-1.44-1.44-2.8-2.95-4.13-4.48l-1.03-1.17Z"/>
  <path fill="#3eaddb" d="M578.12 304.31c3.66.34 7.53.7 10.69 2.76 2.62 1.74 4.18 4.58 5.31 7.44-2.48-2.08-4.56-4.59-7.18-6.49-2.38-1.13-5.06-1.33-7.56-2.1-.31-.4-.94-1.21-1.26-1.61Z"/>
  <path fill="#cddae0" d="M299.22 306.98c2.6-.46 5.25-.43 7.87-.27 5.44.35 10.86-.34 16.29-.52 1.33 1.53 2.69 3.04 4.13 4.48-11.45.78-22.97-.4-34.4.66-10.82 2.56-18.19 12.97-20.01 23.55-.87-4.18-1.33-8.62-.07-12.77 1.86-4.51 5.92-7.62 9.72-10.44 4.77-3.53 10.86-3.71 16.47-4.69Z"/>
  <path fill="#b6c9d2" d="M329.83 312.84c7.77-1.01 15.55.33 23.31.77 6.94.67 13.92.7 20.88 1.2 2.22.28 4.35-.48 6.39-1.27 3.56 4.12 7.43 7.97 11.8 11.24-13.93-2.2-28.1-.27-42.1-1.35-7.57-1.5-14.6-5.4-20.28-10.59Z"/>
  <path fill="#99aeb9" d="M400.67 330.78c14.17 5.87 29.5 7.65 44.33 11.16 9.8 2.1 19.55 4.44 29.38 6.45l-.35.16c-4.3 2.75-9.45 2.06-14.28 2.37-4.35.32-8.56-1.1-12.88-1.22-5.69-.04-10.9-2.73-16.52-3.25-5.87-.58-11.65-1.9-17.55-2.18-4.6-3.97-8.62-8.54-12.13-13.49Z"/>
  <path fill="#a8c2ca" d="M611.5 330.77c.76.69 1.51 1.4 2.25 2.14l-.03.24c-.04.36-.11 1.1-.15 1.46-.63 1.47-1.27 2.92-1.93 4.37.15.52.3 1.05.47 1.58-.76 1.09-1.53 2.18-2.2 3.34-2.3 3.68-1.16 8.6-3.95 12.05-6.3 8.54-11.94 17.67-14.93 27.94-.71.41-1.42.82-2.12 1.24-.67 2.06-1.34 4.12-2 6.18-1.29-1.41-2.56-2.82-3.84-4.22.09-12.44.12-24.88.03-37.32 12.22.06 23.59-7.87 28.4-19Z"/>
  <path fill="#f9fdfe" d="M613.57 334.61c.04-.36.11-1.1.15-1.46 20.62 21.04 41.72 41.61 62.17 62.82 3.03 3.27 4.58 7.51 6.38 11.52-26.62.34-53.24-.04-79.85.21v-.11c.76-7.77-.26-15.56-.08-23.31 1.83-2.78 4.59-4.75 6.74-7.26 4.75-5.48 8.44-12.59 7.5-20.05-.87-7.47-1.76-14.94-3.01-22.36Z"/>
  <path fill="#bdd0d8" d="M613.57 334.61c1.25 7.42 2.14 14.89 3.01 22.36.94 7.46-2.75 14.57-7.5 20.05-2.15 2.51-4.91 4.48-6.74 7.26-.18 7.75.84 15.54.08 23.31-5.86-4.73-10.39-10.81-15.51-16.28.66-2.06 1.33-4.12 2-6.18.7-.42 1.41-.83 2.12-1.24 2.99-10.27 8.63-19.4 14.93-27.94 2.79-3.45 1.65-8.37 3.95-12.05.67-1.16 1.44-2.25 2.2-3.34-.17-.53-.32-1.06-.47-1.58.66-1.45 1.3-2.9 1.93-4.37Z"/>
  <path fill="#9fb5c0" d="M474.03 348.55c13.73.98 27.97-2.41 39.06-10.8 10.51 2.58 21.27 3.94 31.87 6.06 3.08.65 6.19 1.14 9.33 1.44.04.72.1 2.15.13 2.86-4.77.98-9.61.64-14.39.04-10.75-.11-21.59 1.05-31.94 4.04-4.42 1.2-9.09.52-13.53 1.61-2.13.47-4.27 1.21-6.48.96-9.53-1.27-19.2-.09-28.7-1.75.09-.52.27-1.56.37-2.09 4.83-.31 9.98.38 14.28-2.37Z"/>
  <path fill="#acbfca" d="M412.8 344.27c5.9.28 11.68 1.6 17.55 2.18 5.62.52 10.83 3.21 16.52 3.25 4.32.12 8.53 1.54 12.88 1.22-.1.53-.28 1.57-.37 2.09 9.5 1.66 19.17.48 28.7 1.75 2.21.25 4.35-.49 6.48-.96 4.44-1.09 9.11-.41 13.53-1.61 10.35-2.99 21.19-4.15 31.94-4.04 4.78.6 9.62.94 14.39-.04-.04 4.04-.02 8.09.02 12.13l-.62.1c-5.67-1.26-10.79-4.81-16.75-4.56-4.63.11-9.25-.67-13.87-.44-4.41.66-8.63 2.22-13.05 2.78-5.76.73-11.31 2.84-17.16 2.77-9.41-.13-18.76-1.3-28.01-2.92-7.42-.18-14.78-1.31-21.73-3.96-.7.25-2.1.76-2.8 1.01-.73-.01-1.46-.02-2.18-.01-4.68-2.03-9.78-2.76-14.85-2.79-3.74-2.36-7.38-4.92-10.62-7.95Z"/>
  <path fill="#c8d8e1" d="M423.42 352.22c5.07.03 10.17.76 14.85 2.79.72-.01 1.45 0 2.18.01 6.37 2.18 12.74 4.74 19.58 4.92 11.75.24 23.19 4.27 35 3.33 6.96-.68 13.96-1.43 20.72-3.3 4.14-.87 8.4-2.71 12.67-1.44 5.77 1.42 11.84-.03 17.57 1.69 2.56.78 5.24.85 7.83.12l.62-.1c-.03 2.47-.02 4.95-.01 7.42-8.65-2-17.59-2.15-26.42-1.95-4.39.08-8.18 2.48-12.12 4.1-4.67 2.03-9.78 3.04-14.88 2.9-9.91-.22-19.71-2.08-29.31-4.45-11.09-2.49-22-5.71-32.86-9.04-5.41-1.66-10.76-3.73-15.42-7Z"/>
  <path fill="#b8cad5" d="M440.45 355.02c.7-.25 2.1-.76 2.8-1.01 6.95 2.65 14.31 3.78 21.73 3.96 9.25 1.62 18.6 2.79 28.01 2.92 5.85.07 11.4-2.04 17.16-2.77 4.42-.56 8.64-2.12 13.05-2.78 4.62-.23 9.24.55 13.87.44 5.96-.25 11.08 3.3 16.75 4.56-2.59.73-5.27.66-7.83-.12-5.73-1.72-11.8-.27-17.57-1.69-4.27-1.27-8.53.57-12.67 1.44-6.76 1.87-13.76 2.62-20.72 3.3-11.81.94-23.25-3.09-35-3.33-6.84-.18-13.21-2.74-19.58-4.92Z"/>
  <path fill="#001412" d="M291.39 376.46c51.51.15 103.03.14 154.55.17 29.41 0 58.85-.44 88.25.1.92 3.94.27 8.06.43 12.08-76.94-.46-153.9-.18-230.84-.29-4.14-.02-8.27.02-12.4-.07-.05-4-.04-8 .01-11.99Z"/>
  <path fill="#cfdce4" d="M539.26 385.67c1.59 5.58 1.03 11.43.92 17.15-18.04.69-36.11.14-54.15.05-22.35.18-44.71-.4-67.06.28-38.42-.06-76.85.25-115.27-.27-.31-4.79-.2-9.58.08-14.36 76.94.11 153.9-.17 230.84.29 1.3.57 2.56 1.29 3.82 1.99.25-1.72.51-3.43.82-5.13Z"/>
  <path fill="#bacbd5" d="M710.08 393.71c3.14 1.51 5.62 3.99 8.16 6.32.72 6.69-1.29 13.32-.4 20.01.17 8.31.41 16.64-.01 24.94-.64 5.99.47 11.97.26 17.97-.3 9.37.27 18.75-.16 28.11-.11 2.64.02 5.29.5 7.89-.55 1.04-1.12 2.08-1.66 3.13-2.12-2.15-4.44-4.14-6.2-6.6-.75-4.44-.12-9.01-.29-13.49-.18-29.43.13-58.85-.2-88.28Z"/>
  <path fill="#c4d5de" d="M718.24 400.03c2.96 3.58 6.39 6.94 8.38 11.21.73 3.54.23 7.2.3 10.8.11 24.31.22 48.63.32 72.95-.13 5.89.44 11.84-.65 17.68-3.01-3.77-6.37-7.23-9.82-10.59.54-1.05 1.11-2.09 1.66-3.13-.48-2.6-.61-5.25-.5-7.89.43-9.36-.14-18.74.16-28.11.21-6-.9-11.98-.26-17.97.42-8.3.18-16.63.01-24.94-.89-6.69 1.12-13.32.4-20.01Z"/>
  <path fill="#021614" d="M291.37 420.23c15.1-.12 30.2.03 45.3-.09-.11 4.03-.01 8.08-.18 12.12-11.49-.47-23.01-.14-34.5-.21-3.55.05-7.1.01-10.64-.04 0-3.93-.02-7.86.02-11.78Z"/>
  <path fill="#021513" d="M355.54 420.06c59.76 0 119.53.04 179.3.01-.02 4-.04 8-.09 12.01-25.24-.44-50.5.08-75.74-.02-30.28.01-60.55.02-90.83 0-4.22.09-8.45-.03-12.68-.05 0-3.99-.02-7.97.04-11.95Z"/>
  <path fill="#d7e2e8" d="M339.06 432.58c.43-2.89.96-5.76 1.49-8.62.09 6.96 1.53 13.85 1.1 20.83-12.93.62-25.9.41-38.84.2-.3-4.07-.5-8.15-.53-12.23.41.97.82 1.95 1.24 2.94 9.47.86 18.97.11 28.46.25 2.29.21 4.21-1.09 5.9-2.46.3-.22.89-.68 1.18-.91Z"/>
  <path fill="#c8d8dd" d="M301.99 432.05c11.49.07 23.01-.26 34.5.21l1.39 1.23c-1.69 1.37-3.61 2.67-5.9 2.46-9.49-.14-18.99.61-28.46-.25-.42-.99-.83-1.97-1.24-2.94l-.29-.71Z"/>
  <path fill="#d4e1e3" d="M368.18 432.06c30.28.02 60.55.01 90.83 0 25.24.1 50.5-.42 75.74.02.31.4.92 1.21 1.23 1.62 1.06-.58 2.13-1.15 3.2-1.71 1.65 4.13 1.07 8.62.81 12.94-11.68.3-23.38.28-35.07-.08-43.98-.14-87.96.05-131.94.09-1.5-.33-4.42.57-4.3-1.84-.42-3.67-.22-7.37-.5-11.04Z"/>
  <path fill="#99afb9" d="M594.76 437.51c29.05-.03 58.09-.11 87.14-.05.11 2.76.19 5.53.21 8.31-3.33-.69-6.73-1.24-10.13-.8-13.93 1.6-27.98.3-41.96 1.1-6.68.35-13.37-.07-20.05.24-2.75.14-5.49-.08-8.18-.54-2.39-2.72-4.72-5.48-7.03-8.26Z"/>
  <path fill="#b4c8d1" d="M601.79 445.77c2.69.46 5.43.68 8.18.54 6.68-.31 13.37.11 20.05-.24 13.98-.8 28.03.5 41.96-1.1 3.4-.44 6.8.11 10.13.8-.02 1.47-.02 2.95-.01 4.44-5.86 1.05-11.8 2.17-17.77 1.42-5.79-.76-11.55.59-17.34.58-7.01 0-14.02-.04-21.03.01-4.65-.04-9.28 1.66-13.9.52-.9.45-1.78.9-2.66 1.37-2.56-2.76-5.13-5.52-7.61-8.34Z"/>
  <path fill="#cadadf" d="M664.33 451.63c5.97.75 11.91-.37 17.77-1.42 0 3.45-.01 6.91.04 10.37-3.99-1.19-8.09-.44-12.03.51-7.99 1.82-16.07-.62-24.12-.35-6.73.15-13.45.14-20.17-.22.28.69.83 2.09 1.1 2.78-6.9-.44-13.25-3.76-17.52-9.19.88-.47 1.76-.92 2.66-1.37 4.62 1.14 9.25-.56 13.9-.52 7.01-.05 14.02-.01 21.03-.01 5.79.01 11.55-1.34 17.34-.58Z"/>
  <path fill="#dae6e7" d="M625.82 460.52c6.72.36 13.44.37 20.17.22 8.05-.27 16.13 2.17 24.12.35 3.94-.95 8.04-1.7 12.03-.51-.01.9-.04 2.71-.05 3.61-8.71.21-17.42-.02-26.12-.24-9.68-.23-19.42.61-29.05-.65-.27-.69-.82-2.09-1.1-2.78Z"/>
  <path fill="#021413" d="M291.39 463.09c81.12-.21 162.25.22 243.37-.15.01 4.05.03 8.1.07 12.15-77.29.04-154.58.02-231.87.08-3.89.06-7.77.04-11.66-.06.01-4.01-.02-8.02.09-12.02Z"/>
  <path fill="#cbdae0" d="M534.83 475.09c1.71-.17 3.19-1.16 4.76-1.8.32 5.46.9 10.94.28 16.41-48.94.4-97.89-.13-146.83.09-29.95-.02-59.9.01-89.85-.05-.17-4.86-.29-9.71-.23-14.57 77.29-.06 154.58-.04 231.87-.08Z"/>
  <path fill="#39ff8e" d="M649.38 491.41c9.64 1.19 18.85 4.55 27.64 8.57 8.85 3.9 16.93 9.49 23.89 16.2l-.04.09c-1.22 2.33-2.44 4.67-3.66 7-.59-.94-1.17-1.87-1.75-2.8-1.53.61-3.07 1.22-4.59 1.83-2.29-3.31-7.12-2.98-9.92-.55-2.42 2.02-6.03 4-9.08 2.45-4.16-4.88-5.73-11.44-9.82-16.41-.42-.08-1.26-.25-1.68-.34l-.16-.03c-3.42-5.47-7.37-10.57-10.83-16.01Z"/>
  <path fill="#17fd5b" d="M614.98 493.42c4.4-1.11 8.91-1.86 13.47-1.81-4.39 6.67-9.58 12.8-13.66 19.68l-.27.2c-1.68 1.21-3.23 2.56-4.71 4l-1.56.32c-.22 1.22-.43 2.45-.64 3.69-3.33.26-6.44 1.43-8.83 3.81-2.05-.55-4.19-.78-6.14.25.62 1.42 1.27 2.86 1.91 4.29-.31.39-.92 1.18-1.23 1.58-1.7-.64-3.4-1.29-5.09-1.92 1.34-1.39 2.68-2.78 4.03-4.16-5.46 1.43-10.98 2.6-16.56 3.43.93.57 1.87 1.14 2.81 1.71-1.16 1.48-2.32 2.97-3.46 4.47-.39-2.83-.86-5.71-2.58-8.07-1.86 1.15-3.72 2.3-5.61 3.39.7-2.63 2.09-6.87 5.63-4.97.38-.07 1.13-.22 1.5-.29-.87-.88-1.74-1.75-2.6-2.61 1.5-1.47 3.01-2.93 4.35-4.54.11-.59.33-1.77.44-2.37l.1-.55c11.27-9.26 24.63-15.78 38.7-19.53Z"/>
  <path fill="#41fe96" d="M660.37 507.45c.42.09 1.26.26 1.68.34 4.09 4.97 5.66 11.53 9.82 16.41 3.05 1.55 6.66-.43 9.08-2.45 2.8-2.43 7.63-2.76 9.92.55 1.52-.61 3.06-1.22 4.59-1.83.58.93 1.16 1.86 1.75 2.8 1.22-2.33 2.44-4.67 3.66-7 6.6 6 12.43 12.82 17.06 20.47-12.4 5.1-25.13 9.39-37.98 13.23-1.89 1.2-1.91-1.56-2.42-2.58-3.77-14.06-9.93-27.35-17.16-39.94Z"/>
  <path fill="#3bfe81" d="M634.68 512.6c1.19-1.9 2.74-3.54 4.33-5.1 10.49 13.92 17.44 30.18 21.45 47.08-14.58-.61-29.2-.75-43.78 0 3.6-14.87 9.81-29.07 18-41.98Z"/>
  <path fill="#25fe63" d="M609.81 515.49c1.48-1.44 3.03-2.79 4.71-4-1.39 2.94-2.62 6-4.58 8.62-5.82 6.56-7.89 15.35-10.66 23.44-.77 2.42-3.62 3.66-6 3.03-6.91-1.26-13.34-4.27-20.14-5.93-5.06-1.25-9.94-3.13-14.62-5.4 2.57-4.52 6.7-7.97 8.72-12.83 2.38-3.49 5.71-6.24 8.94-8.92-.11.6-.33 1.78-.44 2.37-1.34 1.61-2.85 3.07-4.35 4.54.86.86 1.73 1.73 2.6 2.61-.37.07-1.12.22-1.5.29-3.54-1.9-4.93 2.34-5.63 4.97 1.89-1.09 3.75-2.24 5.61-3.39 1.72 2.36 2.19 5.24 2.58 8.07 1.14-1.5 2.3-2.99 3.46-4.47-.94-.57-1.88-1.14-2.81-1.71 5.58-.83 11.1-2 16.56-3.43-1.35 1.38-2.69 2.77-4.03 4.16 1.69.63 3.39 1.28 5.09 1.92.31-.4.92-1.19 1.23-1.58-.64-1.43-1.29-2.87-1.91-4.29 1.95-1.03 4.09-.8 6.14-.25 2.39-2.38 5.5-3.55 8.83-3.81.21-1.24.42-2.47.64-3.69l1.56-.32Z"/>
  <path fill="#011a15" d="M448.02 522c8.94-4.55 20.01-3.48 28.55 1.47 8.55 5.52 13.45 15.41 14.58 25.34.49 7.01-1.86 14.38-7.18 19.14-5.31 4.71-11.85 7.64-18.01 11.04-18.03 10.04-36.36 19.54-54.34 29.68-15.59 8.85-31.6 16.96-47.3 25.61-6.52 3.58-12.57 8.75-15.26 15.87-4.34 10.76-1.17 23.6 6.58 31.99.26.28.78.84 1.03 1.12.89.86 1.81 1.71 2.77 2.52 6.74 4.98 15.65 6.59 23.73 4.49 5.67-2.05 10.81-5.3 16.18-8 23.89-13.11 47.7-26.39 71.39-39.87.62.22 1.84.66 2.45.88 1.22 2.92 2.42 6.51 6.2 6.61.54-1.52 1.12-3.02 1.71-4.51.69 1.81 1.3 3.68 1.62 5.61 1.22-.54 2.32-1.33 3.56-1.83-1.23-1.91-2.42-3.85-3.54-5.82 2.95-.31 5.22 2.41 8.24 1.78 3.25.5 5.13-2.42 7.75-3.64.58.34 1.74 1.03 2.31 1.38-7.42 4.4-14.94 8.62-22.4 12.96-13.07 7.46-26.22 14.76-39.31 22.18 1.6 3.49 3.04 7.21 5.9 9.91 1.44 1.35 2.18 3.17 2.99 4.96-1-.8-1.89-1.72-2.9-2.47.41 1.9 1.17 3.88 3.26 4.47 1.02 1.36 1.98 2.77 2.93 4.2 2.84-.81 5.56-1.98 8.14-3.43 17.55-9.63 35.09-19.3 52.9-28.45 5-2.53 9.91-5.26 14.85-7.9.33 1.46.65 2.94.99 4.42 2.36-.31 4.76-.28 7.04.5.55 1.69.83 3.79 2.75 4.52 1.52-1.7 2.63-3.73 4.14-5.43 2.12-.5 3.71 1.75 5.36 2.76-17.82 9.87-36.18 18.7-54.01 28.53-18.86 9.89-37.92 19.37-56.66 29.47-14.69 7.63-28.98 16.44-44.92 21.29-22.04 6.69-46.58 1.04-65.21-11.92-14-9.99-25.6-23.85-31.07-40.31-7.28-18.6-7.34-39.81-.05-58.4 5.92-14.63 15.36-28.6 29.23-36.69 14.02-8.65 27.93-17.47 42.08-25.89 19.32-11.57 38.18-23.88 57.32-35.74 7.92-4.73 15.41-10.19 23.63-14.4m2.58 16.61c-4.83 3.07-9.68 6.1-14.48 9.21-9.43 5.71-18.83 11.48-28.2 17.3-10.65 6.74-21.27 13.54-31.92 20.27-6.43 3.16-12.35 7.34-18.67 10.74 3.06 6.51 6.97 12.57 10.37 18.9 3.86-.77 6.9-3.41 10.29-5.23 11.03-6.08 22.19-11.92 33.1-18.2l.11-.21c6.03-3.1 11.9-6.49 17.91-9.64 10.77-5.76 21.43-11.75 32.24-17.44l.14-.3c2.66-1.47 5.34-2.93 7.73-4.83 3.67-3.01 5.96-7.93 5.18-12.71-1.32-6.18-7-11.21-13.37-11.43-3.82-.29-7.27 1.69-10.43 3.57m-124.88 77.1c-11.52 8.79-18.6 22.71-20.34 36.96l-.16-1c-.61 4.43-.7 8.9-.79 13.36-.01 10.46 3.2 20.65 7.58 30.05 3.56 7.37 8.93 13.64 14.57 19.49 7 6.49 15.42 11.38 24.26 14.92 5.22 1.7 10.58 3.08 16.1 3.26 7.92.21 16.06.35 23.69-2.15 8.72-2.59 16.78-6.85 24.8-11.05l.41-.59c6.14-2.66 11.59-6.61 17.5-9.71 1.86-1.29 4.6-2.01 5.51-4.23-3.14-6.92-7.71-13.12-10.96-20-4.73.95-8.67 3.9-12.86 6.09-7.64 4.51-15.81 8.01-23.61 12.19-4.75 1.38-9.41 3.25-14.4 3.53-6.16 1.04-12.24-1-17.99-2.98-6.19-2.22-11.33-6.44-16.4-10.48-.69-1.84-2.15-3.21-3.31-4.74-4.03-4.99-6.17-11.12-8.28-17.09-1.71-9.91-.84-20.4 3.33-29.62 4.53-9.42 12.03-17.57 21.6-21.97-1.72-2.84-3.44-5.68-5.03-8.59l-.11.41c-.12-1.49-.85-3.08-2.15-3.85l-.31.12-.01-1.15c-.75-1.24-1.49-2.47-2.23-3.7-7.11 3.63-14.2 7.44-20.41 12.52Z"/>
  <path fill="#50f97f" d="M599.28 543.55c2.77-8.09 4.84-16.88 10.66-23.44-1.69 4.46-4.08 8.62-5.62 13.15-1.96 5.62-3.55 11.37-5.42 17.03-12.61-4.08-25.31-7.88-37.82-12.27-1.73-.58-3.37-1.37-4.9-2.34 3.81-4.32 6.63-9.5 11.06-13.26-2.02 4.86-6.15 8.31-8.72 12.83 4.68 2.27 9.56 4.15 14.62 5.4 6.8 1.66 13.23 4.67 20.14 5.93 2.38.63 5.23-.61 6-3.03Zm-27.68 15.66c1.5.65 3.41.72 4.58 1.98 0 .41-.01 1.23-.01 1.64-3.53 2.47-8.12 3.42-12.2 4.92 2.8-2.13 5.9-3.82 9.03-5.42-.47-1.05-.94-2.09-1.4-3.12Z"/>
  <path fill="#32f1df" d="M450.6 538.61c3.16-1.88 6.61-3.86 10.43-3.57 6.37.22 12.05 5.25 13.37 11.43.78 4.78-1.51 9.7-5.18 12.71-2.39 1.9-5.07 3.36-7.73 4.83.55-1.21 1.12-2.4 1.69-3.59-1.2-4.16-2.64-8.68-6.17-11.44-4.98-2.02-10.46-.45-15.35 1.07-.07-.4-.22-1.19-.29-1.59-1.76-.13-3.52-.3-5.25-.64 4.8-3.11 9.65-6.14 14.48-9.21Z"/>
  <path fill="#b2c7d0" d="M741.29 535.14c3.65 1.78 5.53 5.59 7.84 8.73 6.58 9.44 11.23 20.04 15.28 30.77 1.44 4.33 3.04 8.66 3.84 13.19-.04 7.41-.67 14.86-2.39 22.09-1.25 5.25-.81 10.67-.89 16.02-.66-1.01-1.33-2.01-1.98-3-2.07 6.65.35 13.74-1.75 20.37-.78 2.73-1.25 5.52-1.86 8.29-.5 2.37-2.53 3.96-3.6 6.05-.49 2.85-.15 5.91-1.54 8.58-1.78 4.57-5.41 7.94-8.45 11.66-1.41 1.59-1.33 3.81-1.61 5.8-.83.29-1.66.59-2.47.9-2.49 6.59-6.78 12.4-11.96 17.13-6.61 6.06-11.88 14.19-12.83 23.25-.07 8.13-.43 16.3.56 24.4.14 7.15-.25 14.45-2.59 21.28-2.94 11.19-8.25 22.28-17.36 29.73-4.24 3.64-9.83 4.91-14.82 7.17-4.29 1.94-9.02 2.44-13.67 2.63-5.36.21-10.7 1.53-16.07.84-5.64-.63-11.3.58-16.94-.08-12.29-1.44-24.7-.73-37.04-.83-13.44-.14-26.88.31-40.3-.39-29.55.25-59.1.04-88.65.35-17.69-.48-35.39.36-53.08-.06-9.66-.3-19.32.26-28.98-.05-20.01.49-40.03-.04-60.04.3-.21.36-.62 1.09-.83 1.45-8.38.33-16.82-.56-25.13.87-5.09.94-10.17-.35-15.24-.68-4.83-1.77-9.34-4.63-13.19-8.03 3.8.64 7.67.23 11.5.24 23.31.15 46.63.27 69.94-.11 19.67.73 39.33-.3 59-.1 10.02.39 19.98-1.18 30.01-.69 12.01-.47 23.97.89 35.98.57 43.32.04 86.64.08 129.96.07 15.51.61 30.98-1.47 46.49-.43 8.36-1.27 17.35-.64 24.93-4.96 4.78-3.14 8.26-7.84 12.88-11.21 3.65-2.59 6.3-7.01 4.9-11.56-1.06-.09-2.11-.17-3.14-.25 1.91-1.92 4-3.65 6.23-5.19-.82-.88-1.63-1.75-2.43-2.61 7.41-11.38 10.73-25.15 10.25-38.66.02-13.51 0-27.03.02-40.54 4.71-4.41 9.45-8.79 13.72-13.63 10.51-12.38 18.6-26.78 23.99-42.08 6.58-18.14 7.57-37.81 5.82-56.88-1.6-14.19-5.76-28.02-12.31-40.71Z"/>
  <path fill="#2ae4e5" d="M407.92 565.12c9.37-5.82 18.77-11.59 28.2-17.3 1.73.34 3.49.51 5.25.64.07.4.22 1.19.29 1.59 4.89-1.52 10.37-3.09 15.35-1.07 3.53 2.76 4.97 7.28 6.17 11.44-.57 1.19-1.14 2.38-1.69 3.59l-.14.3c-10.81 5.69-21.47 11.68-32.24 17.44-.76-1.12-1.51-2.24-2.25-3.36.51-1.93.8-3.93-.13-5.78-.48.4-1.44 1.18-1.91 1.58-3.13-2.5-6.5-4.64-9.82-6.85-.39.28-1.16.85-1.54 1.13-.58-.97-1.17-1.93-1.74-2.88-.7.24-1.39.48-2.08.73l-1.72-1.2Z"/>
  <path fill="#adc5cf" d="M491.15 548.81c.88 5.59 3.4 10.72 4.8 16.18.78 2.89 1.68 5.76 3.06 8.44-2.3 4.34-2.38 9.95-6.55 13.13-4.86 5.8-12.82 6.82-18.67 11.25-2.99 2.58-7.27 2.31-10.39 4.63-5.66 4.09-12.6 5.62-18.92 8.37-.36.81-.7 1.63-1.05 2.46-3.1.55-6.26 1.3-8.83 3.23-4.75 3.46-10.47 5.16-15.25 8.58-5.94 1.76-10.48 6.39-16.47 7.96-2.98.85-5.91 1.86-8.68 3.25-4.53 2.35-9.76 2.99-14.1 5.76-3.55 2.23-8.16 2.92-10.77 6.47-2.99 3.71-7.14 6.61-9.01 11.14-1.19 2.77-2.26 5.59-3.37 8.4-1.81 4.46-1.53 9.37-1.31 14.08-7.75-8.39-10.92-21.23-6.58-31.99 2.69-7.12 8.74-12.29 15.26-15.87 15.7-8.65 31.71-16.76 47.3-25.61 17.98-10.14 36.31-19.64 54.34-29.68 6.16-3.4 12.7-6.33 18.01-11.04 5.32-4.76 7.67-12.13 7.18-19.14Z"/>
  <path fill="#31f869" d="M548.14 550.78c7.88 2.65 15.61 5.72 23.46 8.43.46 1.03.93 2.07 1.4 3.12-3.13 1.6-6.23 3.29-9.03 5.42-7.76 4.1-15.95 7.51-23.16 12.63.22-10.3 3.47-20.16 7.33-29.6Z"/>
  <path fill="#58fbaa" d="M696.61 561.68c9.64-2.91 19.24-5.97 28.5-9.98 2.28 5.21 4.36 10.51 5.74 16.03-1.85 2.12-3.81 4.14-5.86 6.05-7.85-4.17-16.21-7.31-24.61-10.17-1.34-.5-2.56-1.22-3.77-1.93Z"/>
  <path fill="#6ea982" d="M576.18 561.19c1.26-.96 2.18-.7 2.76.77-.58 1.47-1.5 1.76-2.77.87 0-.41.01-1.23.01-1.64Z"/>
  <path fill="#22d8ec" d="M376 585.39c10.65-6.73 21.27-13.53 31.92-20.27l1.72 1.2c.69-.25 1.38-.49 2.08-.73.57.95 1.16 1.91 1.74 2.88.38-.28 1.15-.85 1.54-1.13 3.32 2.21 6.69 4.35 9.82 6.85.47-.4 1.43-1.18 1.91-1.58.93 1.85.64 3.85.13 5.78.74 1.12 1.49 2.24 2.25 3.36-6.01 3.15-11.88 6.54-17.91 9.64 1.4-3.36 4.88-5.02 7.63-7.13-2.34-.24-4.67-.49-6.99-.78.79-1.76 2.08-3.18 3.66-4.29-6.89-.92-13.9-.78-20.49 1.65-1.56-.53-3.1-1.15-4.72-1.4-2.78 1.22-4.79 3.65-7.49 4.98-2.19.74-4.54.67-6.8.97Z"/>
  <path fill="#6bfcb1" d="M724.99 573.78c2.05-1.91 4.01-3.93 5.86-6.05.34 3.4 2.35 7.29 1.28 10.48-2.46-1.36-4.76-2.97-7.14-4.43Z"/>
  <path fill="#41ff9c" d="M613.9 571.84c11.5-.5 23.04-1.74 34.53-.48 2.98.36 5.97.49 8.96.82-2.22.14-4.42.42-6.61.69.43 1.91.86 3.82 1.27 5.75-1.15.65-2.29 1.32-3.42 1.99-.7 3.77-2.19 7.44-4.96 10.16-.81 1.2-2.38 1.06-3.62 1.22-4.96.34-9.95-.54-14.87.25-1.39 1.45-2.27 3.3-3.26 5.03-.75-2.4-1.49-4.79-2.27-7.17-.59 2.02-1.17 4.04-1.75 6.07-.48-1.27-.95-2.54-1.42-3.8-.83.78-1.66 1.56-2.47 2.35 2.5-5.28 1.04-11.09 1.03-16.66-.02-2.02-.37-4.02-1.04-5.92l-.1-.3Z"/>
  <path fill="#4dffa6" d="M657.39 572.18c1.68-.1 3.34.28 5.03.43 2.17 12.73 2.77 25.87 1.02 38.67-.78 1.62-1.61 3.22-2.46 4.81-2.59.91-5.13 1.96-7.61 3.12-2.65 1.05-5.58.76-8.35.92-8.35 0-16.75.53-25.02-.87-2.32-.37-6.03.25-6.38-3-1.99-14.61-1.49-29.53.38-44.12.67 1.9 1.02 3.9 1.04 5.92.01 5.57 1.47 11.38-1.03 16.66.81-.79 1.64-1.57 2.47-2.35.47 1.26.94 2.53 1.42 3.8.58-2.03 1.16-4.05 1.75-6.07.78 2.38 1.52 4.77 2.27 7.17.99-1.73 1.87-3.58 3.26-5.03 4.92-.79 9.91.09 14.87-.25 1.24-.16 2.81-.02 3.62-1.22 2.77-2.72 4.26-6.39 4.96-10.16 1.13-.67 2.27-1.34 3.42-1.99-.41-1.93-.84-3.84-1.27-5.75 2.19-.27 4.39-.55 6.61-.69Z"/>
  <path fill="#c7d9de" d="M499.01 573.43c2.11 4.14 5.82 9.59 2.43 14.04-4.95 5.99-12.29 9.18-18.75 13.25-27.74 16.66-56.51 31.55-84.38 47.96-8.35-.14-16.8 2.28-23.41 7.49-3.15 2.62-6.87 4.51-9.92 7.26-4.72 5.56-7.47 12.61-8.31 19.83-.25-.28-.77-.84-1.03-1.12-.22-4.71-.5-9.62 1.31-14.08 1.11-2.81 2.18-5.63 3.37-8.4 1.87-4.53 6.02-7.43 9.01-11.14 2.61-3.55 7.22-4.24 10.77-6.47 4.34-2.77 9.57-3.41 14.1-5.76 2.77-1.39 5.7-2.4 8.68-3.25 5.99-1.57 10.53-6.2 16.47-7.96 4.78-3.42 10.5-5.12 15.25-8.58 2.57-1.93 5.73-2.68 8.83-3.23.35-.83.69-1.65 1.05-2.46 6.32-2.75 13.26-4.28 18.92-8.37 3.12-2.32 7.4-2.05 10.39-4.63 5.85-4.43 13.81-5.45 18.67-11.25 4.17-3.18 4.25-8.79 6.55-13.13Z"/>
  <path fill="#41fc8b" d="M567.74 584.81c8.89-4.08 18.04-7.75 27.62-9.83-.75 13.09-1.69 26.24-.2 39.32-2.16-.55-4.28-1.18-6.39-1.86l.64-.01c1.29-.02 2.58-.05 3.88-.09.63-5.85-.03-11.72-1.71-17.34-3.11-.09-6.21.13-9.24.82.3.47.88 1.4 1.18 1.87-5.37-.16-10.38 1.77-14.59 5-2.77-1.26-5.67-2.42-8.77-2.19-2.75-1.54-5.95-2.98-7.36-5.98 4.85-3.43 9.48-7.25 14.94-9.71Z"/>
  <path fill="#58febe" d="M681.97 575.34c13.99 4.62 28.76 9.11 39.82 19.33-2.49 3.64-6.58 5.6-10.18 7.92-9.05 5.71-19.49 8.45-29.3 12.48-.23-3.72.24-7.4.59-11.09.18-9.56.04-19.13-.93-28.64Z"/>
  <path fill="#1dcbf2" d="M395.01 580.84c6.59-2.43 13.6-2.57 20.49-1.65-1.58 1.11-2.87 2.53-3.66 4.29 2.32.29 4.65.54 6.99.78-2.75 2.11-6.23 3.77-7.63 7.13l-.11.21c-10.91 6.28-22.07 12.12-33.1 18.2-3.39 1.82-6.43 4.46-10.29 5.23-3.4-6.33-7.31-12.39-10.37-18.9 6.32-3.4 12.24-7.58 18.67-10.74 2.26-.3 4.61-.23 6.8-.97 2.7-1.33 4.71-3.76 7.49-4.98 1.62.25 3.16.87 4.72 1.4Z"/>
  <path fill="#c7d7de" d="M768.25 587.83c4.77 16.56 4.9 34.12 3.7 51.2-1.61 17.13-7.36 33.84-16.63 48.32-5.88 10.05-13.45 19.07-22.24 26.69-1.92 1.7-4.21 3.08-5.67 5.23-.77 10.55-.51 21.15-.59 31.73.53 14.51-1.27 29.93-9.65 42.22-10.3 15.11-28.33 23.27-46.21 24.57-119.64-.25-239.29-.22-358.94-.04-8.79.66-17.51-1.91-25.28-5.85 5.07.33 10.15 1.62 15.24.68 8.31-1.43 16.75-.54 25.13-.87.21-.36.62-1.09.83-1.45 20.01-.34 40.03.19 60.04-.3 9.66.31 19.32-.25 28.98.05 17.69.42 35.39-.42 53.08.06 29.55-.31 59.1-.1 88.65-.35 13.42.7 26.86.25 40.3.39 12.34.1 24.75-.61 37.04.83 5.64.66 11.3-.55 16.94.08 5.37.69 10.71-.63 16.07-.84 4.65-.19 9.38-.69 13.67-2.63 4.99-2.26 10.58-3.53 14.82-7.17 9.11-7.45 14.42-18.54 17.36-29.73 2.34-6.83 2.73-14.13 2.59-21.28-.99-8.1-.63-16.27-.56-24.4.95-9.06 6.22-17.19 12.83-23.25 5.18-4.73 9.47-10.54 11.96-17.13.81-.31 1.64-.61 2.47-.9.28-1.99.2-4.21 1.61-5.8 3.04-3.72 6.67-7.09 8.45-11.66 1.39-2.67 1.05-5.73 1.54-8.58 1.07-2.09 3.1-3.68 3.6-6.05.61-2.77 1.08-5.56 1.86-8.29 2.1-6.63-.32-13.72 1.75-20.37.65.99 1.32 1.99 1.98 3 .08-5.35-.36-10.77.89-16.02 1.72-7.23 2.35-14.68 2.39-22.09Z"/>
  <path fill="#4cff97" d="M582.34 595.82c3.03-.69 6.13-.91 9.24-.82 1.68 5.62 2.34 11.49 1.71 17.34-1.3.04-2.59.07-3.88.09-10.13-2.85-20.27-6.33-29.25-11.93 3.1-.23 6 .93 8.77 2.19 4.21-3.23 9.22-5.16 14.59-5-.3-.47-.88-1.4-1.18-1.87Z"/>
  <path fill="#17c4f3" d="M325.72 615.71c6.21-5.08 13.3-8.89 20.41-12.52.74 1.23 1.48 2.46 2.23 3.7l.01 1.15c-.18 1.87.41 3.89 2.15 4.87.08-.29.24-.86.31-1.14l.11-.41c1.59 2.91 3.31 5.75 5.03 8.59-9.57 4.4-17.07 12.55-21.6 21.97-4.17 9.22-5.04 19.71-3.33 29.62-1.4.76-2.78 1.54-4.17 2.32.08-3.25-.2-6.63-2.46-9.16-.85 2.86-1.57 5.76-2.06 8.72-2.29-11-1.55-22.75 3.11-33.05 2.47-5.64 6.01-10.71 9.6-15.67-2.72-.05-5.43-.06-8.15-.07-3.87 4.45-7.3 9.33-9.57 14.79-4.67 10.19-5.08 21.74-4.03 32.73-2.4-5.18-1.04-10.98-1.75-16.46-.38 2.32-.71 4.66-1.04 6.99-3.76-2.02-4.76-6.08-5.14-10.01 1.74-14.25 8.82-28.17 20.34-36.96Z"/>
  <path fill="#3db8dd" d="m348.37 608.04.31-.12c1.3.77 2.03 2.36 2.15 3.85-.07.28-.23.85-.31 1.14-1.74-.98-2.33-3-2.15-4.87Z"/>
  <path fill="#6bfecd" d="M696.6 627.48c12.14-5.31 24.86-9.73 35.55-17.8-1.24 9.23-4.14 18.24-8.3 26.57-9.03-3.11-18.28-5.52-27.25-8.77Z"/>
  <path fill="#58f5a0" d="M541.97 610.72c12.09 7.88 25.8 12.7 39.49 17-7.91 3.45-16.22 5.86-24.29 8.89-1.13-4.38-2.46-8.86-5.38-12.41-3.26-4.6-9.72-7.04-9.82-13.48Z"/>
  <path fill="#78efb2" d="M660.98 616.09c.85-1.59 1.68-3.19 2.46-4.81-.53 2.46.62 5.91-1.65 7.64-2.8.33-5.62.24-8.42.29 2.48-1.16 5.02-2.21 7.61-3.12Z"/>
  <path fill="#041c1a" d="M317.34 639.42c2.27-5.46 5.7-10.34 9.57-14.79 2.72.01 5.43.02 8.15.07-3.59 4.96-7.13 10.03-9.6 15.67-4.66 10.3-5.4 22.05-3.11 33.05 2.36 10.19 7.55 19.74 15.11 27.01 14.57 14.23 37.44 18.71 56.3 11.02 4.57-1.76 8.86-4.16 13.31-6.2 1.84 2.31 3.36 4.9 3.95 7.84-10.35 5.37-21.15 10.89-33.01 11.58-8.09.64-16.26-.54-23.9-3.21-2.31-.8-4.62-1.62-6.94-2.37.41.03 1.24.08 1.65.11-7.08-2.81-13.09-7.74-18.5-12.99-9.27-9.11-14.85-21.34-17.01-34.06-1.05-10.99-.64-22.54 4.03-32.73Z"/>
  <path fill="#1da8f8" d="M514.41 635.38c3.95-2.3 8.01-4.71 12.59-5.47 4.51.41 9.26 2.28 11.82 6.22 3.24 4.48 2.41 10.82-.46 15.27-2.41 4.05-7.08 5.64-10.96 7.89-4.94 2.64-9.85 5.37-14.85 7.9-.05-.43-.14-1.28-.18-1.7-.69-.43-1.38-.85-2.05-1.26 1.81-.86 3.62-1.71 5.44-2.56-1.04-.69-2.07-1.38-3.1-2.06-.61.56-1.22 1.11-1.81 1.69-10.07-3.08-20.76.07-31.02-1.88 5.45-.6 10.94-.28 16.39-.87-4.38-.78-8.84-.49-13.26-.61-1.73.09-2.96-1.32-4.32-2.12 7.46-4.34 14.98-8.56 22.4-12.96 4.4-2.59 8.97-4.88 13.37-7.48Z"/>
  <path fill="#59febc" d="M616.72 636.37c14.6.99 29.24.07 43.85.64-4.28 16.08-10.97 31.72-21.35 44.84-4.41-4.11-7.34-9.45-10.44-14.55-5.59-9.62-9.35-20.17-12.06-30.93Z"/>
  <path fill="#6afed7" d="M678.38 638.9c12.53 4.51 25.46 7.82 37.95 12.47-9.54 14.32-22.91 25.83-37.95 34.08-8.66 4.55-17.92 8.3-27.65 9.72 6.46-7.04 10.93-15.55 15.68-23.76 5.24-10.3 10.12-21.02 11.97-32.51Z"/>
  <path fill="#4bfca6" d="M571.6 649.51c8.88-3.51 17.8-6.96 27.02-9.47.6 1.77 1.19 3.56 1.75 5.36-.98 2.07-1.95 4.15-2.92 6.24 1.24 1.55 2.47 3.11 3.67 4.7-2.48-.47-4.91-1.05-7.31-1.8-3.13 1.06-6.4 1.67-9.69 1.92 1.33.43 2.68.89 4.02 1.35-4.16.13-8.33.3-12.49.56-.05 1.22-.11 2.44-.15 3.67-.62-1.07-1.23-2.14-1.83-3.2-2.08.23-4.15.54-6.21.82-2.14-1.8-4.25-3.62-6.54-5.2 3.27-2.19 7.08-3.41 10.68-4.95Z"/>
  <path fill="#59feb2" d="M597.45 651.64c.97-2.09 1.94-4.17 2.92-6.24 5.41 18.35 14.73 35.63 27.38 50-16.43-2.59-32.58-8.58-46.07-18.37-1.69-1.87-3.33-3.77-5.21-5.45-3.23-2.6-3.96-6.89-5.35-10.55-.36-.13-1.1-.4-1.46-.53l-2.2-.84c2.06-.28 4.13-.59 6.21-.82.6 1.06 1.21 2.13 1.83 3.2.04-1.23.1-2.45.15-3.67 4.16-.26 8.33-.43 12.49-.56-1.34-.46-2.69-.92-4.02-1.35 3.29-.25 6.56-.86 9.69-1.92 2.4.75 4.83 1.33 7.31 1.8-1.2-1.59-2.43-3.15-3.67-4.7Z"/>
  <path fill="#e4ecef" d="M374.9 656.17c6.61-5.21 15.06-7.63 23.41-7.49-4.02 3.15-8 6.35-11.79 9.76-2.58 2.54-6.37 2.82-9.47 4.42-4.11 2.1-7.84 5.01-10.63 8.69-3.2 4.22-6.5 8.79-6.98 14.23-.96-.81-1.88-1.66-2.77-2.52.84-7.22 3.59-14.27 8.31-19.83 3.05-2.75 6.77-4.64 9.92-7.26Z"/>
  <path fill="#1babf7" d="m305.22 651.67.16 1c.38 3.93 1.38 7.99 5.14 10.01.33-2.33.66-4.67 1.04-6.99.71 5.48-.65 11.28 1.75 16.46 2.16 12.72 7.74 24.95 17.01 34.06-1.13.95-2.32 1.85-3.3 2.98-.46 1.75-.37 3.57-.44 5.38-5.64-5.85-11.01-12.12-14.57-19.49-4.38-9.4-7.59-19.59-7.58-30.05.09-4.46.18-8.93.79-13.36Z"/>
  <path fill="#1c9ef8" d="M439.33 678c13.09-7.42 26.24-14.72 39.31-22.18 1.36.8 2.59 2.21 4.32 2.12 4.42.12 8.88-.17 13.26.61-5.45.59-10.94.27-16.39.87 10.26 1.95 20.95-1.2 31.02 1.88.59-.58 1.2-1.13 1.81-1.69 1.03.68 2.06 1.37 3.1 2.06-1.82.85-3.63 1.7-5.44 2.56.67.41 1.36.83 2.05 1.26.04.42.13 1.27.18 1.7-17.81 9.15-35.35 18.82-52.9 28.45-2.58 1.45-5.3 2.62-8.14 3.43-.95-1.43-1.91-2.84-2.93-4.2-2.09-.59-2.85-2.57-3.26-4.47 1.01.75 1.9 1.67 2.9 2.47-.81-1.79-1.55-3.61-2.99-4.96-2.86-2.7-4.3-6.42-5.9-9.91Z"/>
  <path fill="#79e7bc" d="M569.66 660.5c.36.13 1.1.4 1.46.53 1.39 3.66 2.12 7.95 5.35 10.55 1.88 1.68 3.52 3.58 5.21 5.45-.78.6-1.54 1.21-2.31 1.82-3.54-.58-7.19-1.76-9.53-4.64-2.98-3.02-3.25-7.46-3.67-11.43l-.02-.12c1.18-.7 2.35-1.42 3.51-2.16Z"/>
  <path fill="#98cfc6" d="M561.36 665.33c1.58-.89 3.18-1.74 4.81-2.55.42 3.97.69 8.41 3.67 11.43 2.34 2.88 5.99 4.06 9.53 4.64-1.68.94-3.33 1.92-4.98 2.92-3.38-1.58-7.21-2.54-10-5.1-1.68-3.66.95-8.84-3.03-11.34Z"/>
  <path fill="#19b2f6" d="M324.41 664.7c2.26 2.53 2.54 5.91 2.46 9.16 1.39-.78 2.77-1.56 4.17-2.32 2.11 5.97 4.25 12.1 8.28 17.09 1.16 1.53 2.62 2.9 3.31 4.74.35 1.5.61 3.02.89 4.55-.84-.5-1.68-.99-2.52-1.47-1.18 1.32-2.36 2.64-3.54 3.98-7.56-7.27-12.75-16.82-15.11-27.01.49-2.96 1.21-5.86 2.06-8.72Z"/>
  <path fill="#aac2cc" d="M547.68 666.06c.37-.21 1.12-.61 1.5-.81 2.24 1.06 4.43 2.29 6.79 3.12 1.91-.8 3.64-1.95 5.39-3.04 3.98 2.5 1.35 7.68 3.03 11.34 2.79 2.56 6.62 3.52 10 5.1-1.42.81-2.84 1.63-4.28 2.4-.03-.49-.09-1.46-.12-1.95-5.94 2.59-12.95 1.78-18.4 5.51-3.42 2.19-7.92 1.25-11.31 3.53-4.09 2.81-9.34 2.76-13.53 5.36-4.71 2.82-9.85 4.79-14.61 7.52-4.14 2.34-8.92 3.36-12.82 6.15-2.96 2.07-6.61 2.62-9.76 4.3-6.68 3.82-14.64 5.32-20.53 10.52-2.89 2.58-6.99 2.74-10.17 4.78-4.48 3.19-9.89 4.54-14.67 7.17-4.48 1.59-7.47 5.62-11.87 7.34-3.18 1.34-6.85 1.96-9.17 4.75-2.86 3.12-6.85 4.7-10.62 6.39-.47 1.53-.94 3.07-1.4 4.61-.45-.8-.9-1.6-1.34-2.38-2.37 1.57-5.19 2.91-6.27 5.75 2.94.48 5.9.93 8.87 1.34-17.6.35-35.22.19-52.83.11-6.29-4.16-13.03-7.73-18.49-13.01-5.61-5.4-11.01-11.34-14.19-18.53 18.63 12.96 43.17 18.61 65.21 11.92 15.94-4.85 30.23-13.66 44.92-21.29 18.74-10.1 37.8-19.58 56.66-29.47 17.83-9.83 36.19-18.66 54.01-28.53Z"/>
  <path fill="#b6ccd3" d="M551.59 687.73c5.45-3.73 12.46-2.92 18.4-5.51.03.49.09 1.46.12 1.95-2.05 1.58-5 2.16-6.27 4.61l-.03.01c-8.46 2.13-16.75 4.9-24.78 8.3-8.61 4.23-17.2 8.55-26.17 11.97-7.45 4.26-15.44 7.42-23.16 11.16-6.67 2.35-12.86 5.85-18.71 9.79-6.68 2.67-12.91 6.29-19.16 9.82-4.41 3.83-10.56 4.37-15.11 7.98-3.51 2.69-8.03 3.67-11.31 6.68-2.54 2.27-5.72 3.58-8.58 5.37-2.17.89-1.15 3.53-1.42 5.32-1.01-.1-2.02-.21-3.02-.32-2.97-.41-5.93-.86-8.87-1.34 1.08-2.84 3.9-4.18 6.27-5.75.44.78.89 1.58 1.34 2.38.46-1.54.93-3.08 1.4-4.61 3.77-1.69 7.76-3.27 10.62-6.39 2.32-2.79 5.99-3.41 9.17-4.75 4.4-1.72 7.39-5.75 11.87-7.34 4.78-2.63 10.19-3.98 14.67-7.17 3.18-2.04 7.28-2.2 10.17-4.78 5.89-5.2 13.85-6.7 20.53-10.52 3.15-1.68 6.8-2.23 9.76-4.3 3.9-2.79 8.68-3.81 12.82-6.15 4.76-2.73 9.9-4.7 14.61-7.52 4.19-2.6 9.44-2.55 13.53-5.36 3.39-2.28 7.89-1.34 11.31-3.53Z"/>
  <path fill="#0d8cf7" d="M415.03 691.11c4.19-2.19 8.13-5.14 12.86-6.09 3.25 6.88 7.82 13.08 10.96 20-.91 2.22-3.65 2.94-5.51 4.23-5.91 3.1-11.36 7.05-17.5 9.71 1.54-2.21 3.04-4.45 4.57-6.67-2.33 1.82-4.77 3.48-7.32 4.98-.73-1.38-1.47-2.75-2.07-4.18-.59-2.94-2.11-5.53-3.95-7.84-4.45 2.04-8.74 4.44-13.31 6.2-.5-.7-.99-1.37-1.48-2.05-1.44.29-2.9 1.11-4.39.75-1.07-.68-1.84-1.71-2.66-2.63 2.06-1.4 4.11-2.83 6.19-4.22 7.8-4.18 15.97-7.68 23.61-12.19Z"/>
  <path fill="#c7d8dd" d="M539.03 697.09c8.03-3.4 16.32-6.17 24.78-8.3-6.95 5.07-15.02 8.26-22.44 12.54-18.89 9.74-37.66 19.71-56.54 29.44-14.17 8.43-28.96 15.75-43.46 23.58-7.01 4.12-14.49 7.32-21.93 10.56-1.34.14-2.69.23-4.03.27.27-1.79-.75-4.43 1.42-5.32 2.86-1.79 6.04-3.1 8.58-5.37 3.28-3.01 7.8-3.99 11.31-6.68 4.55-3.61 10.7-4.15 15.11-7.98 6.25-3.53 12.48-7.15 19.16-9.82 5.85-3.94 12.04-7.44 18.71-9.79 7.72-3.74 15.71-6.9 23.16-11.16 8.97-3.42 17.56-7.74 26.17-11.97Z"/>
  <path fill="#aac0ca" d="M566.88 691.18c23.39 18.65 54.46 27.8 84.19 23.65 10.61-.82 20.66-4.67 30.68-7.98-.01 6.69.04 13.37-.03 20.07-1.61-1-3.19-2.06-4.94-2.77-8.86 4.45-18.79 7.39-28.79 6.77-8.91.24-17.73-1.35-26.64-1.34-3.79.09-7-2.16-10.5-3.2-2.74-.38-5.48.22-8.18.57-10.24-6.68-19.65-14.71-27.69-23.93-3-3.72-6.81-7.07-8.1-11.84Z"/>
  <path fill="#11a2f6" d="M343.52 697.92c-.28-1.53-.54-3.05-.89-4.55 5.07 4.04 10.21 8.26 16.4 10.48 5.75 1.98 11.83 4.02 17.99 2.98 4.99-.28 9.65-2.15 14.4-3.53-2.08 1.39-4.13 2.82-6.19 4.22.82.92 1.59 1.95 2.66 2.63 1.49.36 2.95-.46 4.39-.75.49.68.98 1.35 1.48 2.05-18.86 7.69-41.73 3.21-56.3-11.02 1.18-1.34 2.36-2.66 3.54-3.98.84.48 1.68.97 2.52 1.47Z"/>
  <path fill="#0a90fa" d="M327.02 709.19c.98-1.13 2.17-2.03 3.3-2.98 5.41 5.25 11.42 10.18 18.5 12.99-.41-.03-1.24-.08-1.65-.11 2.32.75 4.63 1.57 6.94 2.37-.47.61-1.42 1.84-1.89 2.45 1.26.26 2.52.5 3.79.76-.66 2.51-2.89 3.92-5.17 4.82-8.84-3.54-17.26-8.43-24.26-14.92.07-1.81-.02-3.63.44-5.38Z"/>
  <path fill="#057ff4" d="M413.09 717.27c2.55-1.5 4.99-3.16 7.32-4.98-1.53 2.22-3.03 4.46-4.57 6.67l-.41.59c-8.02 4.2-16.08 8.46-24.8 11.05-7.63 2.5-15.77 2.36-23.69 2.15-5.52-.18-10.88-1.56-16.1-3.26 2.28-.9 4.51-2.31 5.17-4.82-1.27-.26-2.53-.5-3.79-.76.47-.61 1.42-1.84 1.89-2.45 7.64 2.67 15.81 3.85 23.9 3.21 11.86-.69 22.66-6.21 33.01-11.58.6 1.43 1.34 2.8 2.07 4.18Z"/>
  <path fill="#baced4" d="M647.99 730.92c10 .62 19.93-2.32 28.79-6.77 1.75.71 3.33 1.77 4.94 2.77-.13 2.03-.23 4.08-.35 6.12-19.05 6.45-39.97 8.57-59.52 3.11-6.78-2.16-13.29-5.22-19.18-9.2 2.7-.35 5.44-.95 8.18-.57 3.5 1.04 6.71 3.29 10.5 3.2 8.91-.01 17.73 1.58 26.64 1.34Z"/>
  <path fill="#9bafba" d="M663.09 792.92c15.01-2.98 28.53-12.36 36.71-25.28.8.86 1.61 1.73 2.43 2.61-2.23 1.54-4.32 3.27-6.23 5.19 1.03.08 2.08.16 3.14.25 1.4 4.55-1.25 8.97-4.9 11.56-4.62 3.37-8.1 8.07-12.88 11.21-7.58 4.32-16.57 3.69-24.93 4.96-15.51-1.04-30.98 1.04-46.49.43-43.32.01-86.64-.03-129.96-.07-12.01.32-23.97-1.04-35.98-.57-10.03-.49-19.99 1.08-30.01.69-19.67-.2-39.33.83-59 .1-23.31.38-46.63.26-69.94.11-3.83-.01-7.7.4-11.5-.24-7.47-4.9-13.04-12.06-18.94-18.64-.91-.9-1.44-2.06-1.79-3.26 8.67 6.59 18.95 11.02 29.81 12.25 7.05.85 13.8 4.05 21.01 3.34 5.16-.42 10.28.37 15.41.66 9.31.48 18.43-2.89 27.75-1.61 4.27.57 8.6.84 12.86.11 5.34-.95 10.68.77 16.02.06 6.79-.78 13.65-.68 20.43.09 5.67.73 11.26-1.24 16.92-.58 4.31.43 8.63 1.23 12.98.67 5.34-.7 10.69.26 16.05.28 7 .1 13.98-.77 20.98-.23 2.01.5 2.97-1.07 3.64-2.67 57.1-.13 114.21 0 171.32-.04 8.37-.12 16.88.73 25.09-1.38Z"/>
  <path fill="#8ea3ab" d="M282.63 794.22c61.35-.16 122.7-.11 184.05.12-.67 1.6-1.63 3.17-3.64 2.67-7-.54-13.98.33-20.98.23-5.36-.02-10.71-.98-16.05-.28-4.35.56-8.67-.24-12.98-.67-5.66-.66-11.25 1.31-16.92.58-6.78-.77-13.64-.87-20.43-.09-5.34.71-10.68-1.01-16.02-.06-4.26.73-8.59.46-12.86-.11-9.32-1.28-18.44 2.09-27.75 1.61-5.13-.29-10.25-1.08-15.41-.66-7.21.71-13.96-2.49-21.01-3.34Z"/>
</svg>
